<svg xmlns="http://www.w3.org/2000/svg" viewBox="0 0 350 427" width="350" height="427">
  <title>MKS Icon B1</title>
  <g fill-rule="evenodd">
    <path fill="#0D4581" d="M 66 291 L 130 368 L 165 401 L 179 405 L 197 391 L 237 350 L 270 310 L 286 285 L 261 296 L 232 298 L 215 295 L 162 275 L 119 272 L 74 282 L 67 286 Z M 294 74 L 270 51 L 253 40 L 222 27 L 192 21 L 151 21 L 124 26 L 91 40 L 71 54 L 51 75 L 35 100 L 26 123 L 20 159 L 22 194 L 28 219 L 53 271 L 82 259 L 77 252 L 77 115 L 82 106 L 76 100 L 76 91 L 81 85 L 91 83 L 262 83 L 273 94 L 272 101 L 266 106 L 271 114 L 270 259 L 264 264 L 230 263 L 236 212 L 214 201 L 194 182 L 180 158 L 175 139 L 163 169 L 148 189 L 128 205 L 112 212 L 117 252 L 164 254 L 218 274 L 238 277 L 276 272 L 305 257 L 322 218 L 327 196 L 329 162 L 319 116 Z"/>
    <path fill="#F05D46" d="M 81 109 L 78 115 L 78 252 L 81 257 L 104 252 L 103 210 L 118 209 L 146 190 L 162 169 L 171 144 L 176 143 L 190 175 L 209 196 L 231 209 L 246 210 L 244 263 L 264 263 L 269 259 L 270 114 L 264 107 Z M 182 128 L 208 129 L 213 159 L 230 196 L 229 201 L 217 196 L 194 171 L 183 146 Z M 167 128 L 166 145 L 155 170 L 135 193 L 120 201 L 119 195 L 134 164 L 141 129 Z"/>
    <path fill="#FFFFFF" d="M 238 209 L 231 263 L 243 264 L 245 210 Z M 111 209 L 104 210 L 105 254 L 116 253 Z M 181 129 L 188 158 L 197 174 L 217 195 L 233 204 L 215 168 L 207 129 Z M 167 129 L 142 129 L 134 167 L 116 204 L 135 192 L 150 176 L 163 151 Z M 76 94 L 78 102 L 84 106 L 265 106 L 272 98 L 270 89 L 262 84 L 91 84 L 81 86 Z"/>
  </g>
</svg>