<svg xmlns="http://www.w3.org/2000/svg" viewBox="0 0 557 339" width="557" height="339">
  <title>MKS Logo A2</title>
  <g fill-rule="evenodd">
    <path fill="#0D4581" d="M 239 109 L 237 111 L 237 253 L 264 253 L 289 259 L 289 231 L 294 230 L 333 280 L 355 302 L 367 310 L 376 313 L 441 313 L 441 311 L 420 299 L 393 275 L 331 200 L 331 194 L 385 124 L 393 110 L 391 108 L 348 108 L 340 111 L 295 175 L 290 176 L 288 111 L 282 108 Z M 195 21 L 191 21 L 189 26 L 184 28 L 184 32 L 190 35 L 190 40 L 186 52 L 186 68 L 178 68 L 178 106 L 170 108 L 166 102 L 162 104 L 163 122 L 161 130 L 157 134 L 157 140 L 162 144 L 162 205 L 160 207 L 152 206 L 152 190 L 149 188 L 113 196 L 113 223 L 76 239 L 75 269 L 65 270 L 65 231 L 81 219 L 84 210 L 84 198 L 106 185 L 107 179 L 78 116 L 71 108 L 63 105 L 26 105 L 21 109 L 21 313 L 24 317 L 94 317 L 109 314 L 139 301 L 190 267 L 221 256 L 220 108 L 222 103 L 218 101 L 214 107 L 207 105 L 208 74 L 207 69 L 199 67 L 200 52 L 196 48 L 196 38 L 202 32 L 202 28 L 198 27 Z M 177 186 L 184 188 L 183 209 L 175 208 L 175 189 Z M 167 150 L 172 151 L 171 171 L 166 170 Z M 206 145 L 212 147 L 211 169 L 204 167 L 204 147 Z M 178 144 L 184 146 L 184 166 L 182 168 L 176 167 L 176 147 Z"/>
    <path fill="#F05D46" d="M 146 309 L 146 312 L 339 311 L 337 306 L 326 295 L 306 280 L 278 268 L 255 264 L 232 265 L 206 272 L 184 283 Z M 450 106 L 417 114 L 402 122 L 391 132 L 380 154 L 380 179 L 391 199 L 405 210 L 473 236 L 481 246 L 481 256 L 469 268 L 446 270 L 423 262 L 399 244 L 387 256 L 384 264 L 410 290 L 430 305 L 444 312 L 468 312 L 501 303 L 524 285 L 534 264 L 535 236 L 527 216 L 513 202 L 487 189 L 444 176 L 435 168 L 434 158 L 444 149 L 463 147 L 481 151 L 498 161 L 502 161 L 521 137 L 526 125 L 495 110 L 471 106 Z"/>
  </g>
</svg>